#!OML:ASF E:\Steps\Project 1\Capture day 1\Session 2\Subject.ASF
:FULLY-SPECIFIED
:DEGREES
392
root 8.75045 16.1715 23.0312 -154.251 1.30336 178.417
lowerback -31.0362 -3.36572 -4.1211
upperback -3.24298 -1.77346 -0.352052
thorax 12.6941 -0.51542 1.26537
lowerneck 2.34146 -1.74146 -2.8025
upperneck -10.527 -1.50171 6.29576
head -3.79286 -0.724784 2.66086
rclavicle -3.00662e-015 7.95139e-016
rhumerus -37.35 -17.2241 -78.6359
rradius 29.6879
rwrist 0.433657
rhand -7.12623 -53.8726
rfingers 7.12502
rthumb 18.7494 277.011
lclavicle -3.00662e-015 7.95139e-016
lhumerus -27.3975 -0.880122 85.5198
lradius 24.8513
lwrist -3.16055
lhand -22.3338 -11.7528
lfingers 7.12502
lthumb 4.08647 18.1877
rfemur -23.3896 7.76637 17.5334
rtibia 16.2521
rfoot -25.4542 -8.26034
rtoes -25.4177
lfemur -22.3717 -9.31591 -21.9592
ltibia 14.3332
lfoot -13.0375 1.21118
ltoes -32.3825
393
root 8.74716 16.1668 23.0322 -154.271 1.18553 178.451
lowerback -31.03 -3.34602 -4.08965
upperback -3.18969 -1.77064 -0.34116
thorax 12.7514 -0.519056 1.26009
lowerneck 2.33635 -1.76946 -2.80858
upperneck -10.6488 -1.52754 6.28102
head -3.83339 -0.733882 2.66055
rclavicle 2.54444e-014 -1.39149e-014
rhumerus -37.0626 -17.2297 -78.7651
rradius 29.5557
rwrist 0.322428
rhand -7.12984 -53.5204
rfingers 7.12502
rthumb 18.7459 277.363
lclavicle 2.54444e-014 -1.39149e-014
lhumerus -27.3379 -0.853393 85.5505
lradius 25.0743
lwrist -3.21434
lhand -22.1293 -11.6201
lfingers 7.12502
lthumb 4.28388 18.3166
rfemur -23.411 7.89301 17.5701
rtibia 16.3569
rfoot -25.5519 -8.45268
rtoes -25.2929
lfemur -22.399 -9.37916 -21.9131
ltibia 14.4263
lfoot -13.0781 1.04361
ltoes -31.5055
394
root 8.74365 16.1632 23.0335 -154.355 1.05806 178.455
lowerback -30.9727 -3.32175 -4.06065
upperback -3.12811 -1.76468 -0.350754
thorax 12.7954 -0.522653 1.23601
lowerneck 2.36013 -1.79396 -2.82809
upperneck -10.7366 -1.55505 6.2676
head -3.86752 -0.745065 2.6631
rclavicle -3.27995e-015 -3.57812e-015
rhumerus -36.8262 -17.3831 -78.8127
rradius 29.4147
rwrist 0.405349
rhand -7.20692 -53.3095
rfingers 7.12502
rthumb 18.6718 277.567
lclavicle -3.27995e-015 -3.57812e-015
lhumerus -27.2876 -0.929115 85.5726
lradius 25.2871
lwrist -3.13306
lhand -21.832 -11.573
lfingers 7.12502
lthumb 4.57096 18.3577
rfemur -23.3229 7.92026 17.5892
rtibia 16.3961
rfoot -25.7185 -8.52408
rtoes -25.0027
lfemur -22.3639 -9.47719 -21.9124
ltibia 14.53
lfoot -13.1579 0.986136
ltoes -31.4923
395
root 8.7464 16.1656 23.0478 -154.474 0.933574 178.37
lowerback -30.6881 -3.33718 -4.2098
upperback -3.10592 -1.76206 -0.379913
thorax 12.7005 -0.534824 1.29035
lowerneck 2.35549 -1.84802 -2.82273
upperneck -10.8091 -1.61642 6.28743
head -3.88889 -0.774158 2.67276
rclavicle 4.07509e-015 -1.59028e-015
rhumerus -36.7436 -17.3511 -78.9526
rradius 29.5076
rwrist 0.334182
rhand -7.46266 -53.4906
rfingers 7.12502
rthumb 18.4258 277.362
lclavicle 4.07509e-015 -1.59028e-015
lhumerus -27.1708 -0.984606 85.5501
lradius 25.3447
lwrist -3.00903
lhand -21.4993 -11.5174
lfingers 7.12502
lthumb 4.89228 18.4061
rfemur -23.2823 8.08436 17.4812
rtibia 16.4773
rfoot -25.8748 -8.69618
rtoes -24.5338
lfemur -22.4331 -9.50617 -21.9376
ltibia 14.7257
lfoot -13.2324 0.855016
ltoes -31.1599
396
root 8.76087 16.183 23.0928 -154.584 0.697745 178.243
lowerback -29.9413 -3.46387 -4.60129
upperback -3.19487 -1.86492 -0.341414
thorax 12.2923 -0.602374 1.51851
lowerneck 2.28687 -1.8808 -2.82234
upperneck -10.8496 -1.65307 6.27821
head -3.88773 -0.788655 2.67017
rclavicle -1.18028e-014 -2.14687e-014
rhumerus -36.6816 -17.2135 -79.1525
rradius 29.6445
rwrist 0.338218
rhand -7.43799 -53.8508
rfingers 7.12502
rthumb 18.4495 277.004
lclavicle -1.18028e-014 -2.14687e-014
lhumerus -27.0336 -0.924021 85.5186
lradius 25.2923
lwrist -2.9871
lhand -21.455 -11.5087
lfingers 7.12502
lthumb 4.93501 18.4138
rfemur -23.5378 8.44194 17.3263
rtibia 16.7588
rfoot -25.8031 -9.39752
rtoes -24.7948
lfemur -22.9399 -9.45838 -21.8109
ltibia 15.3482
lfoot -13.2469 0.637502
ltoes -30.7932
397
root 8.75316 16.1687 23.0794 -154.475 0.477253 178.358
lowerback -30.2971 -3.42675 -4.35133
upperback -3.10729 -1.87545 -0.338709
thorax 12.5405 -0.599085 1.37419
lowerneck 2.27421 -1.91563 -2.81843
upperneck -10.9306 -1.6911 6.2661
head -3.91187 -0.804714 2.66825
rclavicle -5.39203e-015 -4.77083e-015
rhumerus -36.543 -17.358 -79.2079
rradius 29.5606
rwrist 0.512208
rhand -6.76268 -53.9515
rfingers 7.12502
rthumb 19.0991 276.966
lclavicle -5.39203e-015 -4.77083e-015
lhumerus -26.9501 -0.856926 85.4808
lradius 25.2176
lwrist -3.12012
lhand -21.8327 -11.6787
lfingers 7.12502
lthumb 4.57029 18.252
rfemur -23.3612 8.15921 17.5548
rtibia 16.4412
rfoot -25.7971 -9.32581
rtoes -24.963
lfemur -22.9235 -9.61948 -21.7264
ltibia 15.2812
lfoot -13.348 0.699353
ltoes -31.6188
398
root 8.76481 16.1801 23.1133 -154.528 0.271899 178.366
lowerback -29.7431 -2.2557 -5.26227
upperback -3.1588 -2.24304 -0.352737
thorax 12.2254 -1.70939 1.53436
lowerneck 2.31878 -1.96904 -2.78958
upperneck -11.0309 -1.7519 6.26461
head -3.95298 -0.834524 2.66801
rclavicle -5.2181e-015 2.42517e-014
rhumerus -36.3762 -17.5338 -79.2297
rradius 29.4358
rwrist 0.420387
rhand -6.19967 -53.649
rfingers 7.12502
rthumb 19.6404 277.323
lclavicle -5.2181e-015 2.42517e-014
lhumerus -26.8721 -0.8512 85.4587
lradius 25.0882
lwrist -3.31279
lhand -22.4292 -11.7771
lfingers 7.12502
lthumb 3.99427 18.1652
rfemur -23.6326 8.57172 17.5257
rtibia 16.7552
rfoot -25.8887 -9.79673
rtoes -24.0395
lfemur -23.3818 -9.586 -21.4863
ltibia 15.8146
lfoot -13.4776 0.569126
ltoes -31.9971
399
root 8.76446 16.1789 23.113 -154.685 0.150724 178.442
lowerback -29.6797 -2.24302 -5.21069
upperback -3.05859 -2.22074 -0.323736
thorax 12.3109 -1.6888 1.54811
lowerneck 2.35828 -2.02402 -2.77104
upperneck -11.1628 -1.81141 6.26612
head -4.00446 -0.862545 2.67142
rclavicle -5.71506e-016 -3.18055e-015
rhumerus -36.1838 -17.6846 -79.2096
rradius 29.2936
rwrist 0.407568
rhand -6.01734 -53.4446
rfingers 7.12502
rthumb 19.8157 277.546
lclavicle -5.71506e-016 -3.18055e-015
lhumerus -26.7624 -0.631594 85.4427
lradius 24.9391
lwrist -3.44009
lhand -22.7125 -11.6327
lfingers 7.12502
lthumb 3.72073 18.3146
rfemur -23.3811 8.57618 17.679
rtibia 16.7092
rfoot -25.8918 -9.78527
rtoes -23.5353
lfemur -23.2499 -9.65705 -21.3894
ltibia 15.9028
lfoot -13.5198 0.458603
ltoes -30.5969
400
root 8.76381 16.1785 23.1166 -154.85 0.0608024 178.46
lowerback -29.4002 -2.23689 -5.1965
upperback -3.39344 -2.21561 -0.367114
thorax 12.5987 -1.68536 1.61893
lowerneck 2.35237 -2.09001 -2.75454
upperneck -11.2174 -1.88567 6.32001
head -4.01867 -0.899886 2.69097
rclavicle 1.07592e-014 4.01545e-014
rhumerus -36.0313 -18.093 -79.0693
rradius 29.0743
rwrist 0.893098
rhand -5.87493 -53.2011
rfingers 7.12502
rthumb 19.9526 277.803
lclavicle 1.07592e-014 4.01545e-014
lhumerus -26.6975 -0.265637 85.3832
lradius 24.7962
lwrist -3.62995
lhand -22.8447 -11.6119
lfingers 7.12502
lthumb 3.59304 18.3376
rfemur -23.1718 8.59274 17.7445
rtibia 16.6781
rfoot -25.8355 -9.83602
rtoes -23.2025
lfemur -23.1867 -9.84913 -21.3545
ltibia 16.1339
lfoot -13.6066 0.553177
ltoes -29.5377
401
root 8.76255 16.1788 23.1185 -154.978 0.00458299 178.466
lowerback -29.2616 -2.20833 -5.19521
upperback -3.34624 -2.16857 -0.371754
thorax 12.5795 -1.65744 1.63588
lowerneck 2.25873 -2.11223 -2.72761
upperneck -11.0984 -1.92012 6.33409
head -3.95605 -0.917986 2.68676
rclavicle -5.14355e-015 -5.56597e-015
rhumerus -35.9866 -18.4256 -78.9835
rradius 28.9894
rwrist 1.30181
rhand -5.80326 -52.7585
rfingers 7.12502
rthumb 20.0215 278.253
lclavicle -5.14355e-015 -5.56597e-015
lhumerus -26.6703 -0.0392125 85.3333
lradius 24.6329
lwrist -3.77399
lhand -22.9358 -11.512
lfingers 7.12502
lthumb 3.5051 18.4389
rfemur -23.0206 8.57574 17.7776
rtibia 16.6559
rfoot -25.7984 -9.80225
rtoes -22.9903
lfemur -23.1813 -10.0113 -21.3504
ltibia 16.4101
lfoot -13.7643 0.811664
ltoes -30.1483
402
root 8.76073 16.1796 23.1193 -155.07 -0.0291682 178.471
lowerback -29.2291 -2.17208 -5.16623
upperback -3.27914 -2.11327 -0.380611
thorax 12.6371 -1.6258 1.6312
lowerneck 2.281 -2.15452 -2.70277
upperneck -11.174 -1.96729 6.33645
head -3.98482 -0.940997 2.6871
rclavicle -1.75676e-014 -1.66979e-014
rhumerus -35.9677 -18.3148 -79.1015
rradius 29.1296
rwrist 1.166
rhand -5.89241 -52.7414
rfingers 7.12502
rthumb 19.9358 278.261
lclavicle -1.75676e-014 -1.66979e-014
lhumerus -26.6051 0.219511 85.2691
lradius 24.4817
lwrist -3.67133
lhand -22.6389 -11.428
lfingers 7.12502
lthumb 3.79183 18.518
rfemur -22.9098 8.49216 17.7981
rtibia 16.6257
rfoot -25.7442 -9.65859
rtoes -22.8002
lfemur -23.1401 -10.1086 -21.3583
ltibia 16.523
lfoot -13.8074 0.88962
ltoes -30.399
403
root 8.7595 16.1801 23.121 -155.143 -0.0706955 178.466
lowerback -29.2692 -2.14346 -5.12666
upperback -3.16287 -2.05672 -0.406706
thorax 12.7896 -1.59191 1.59784
lowerneck 2.22258 -2.22978 -2.67784
upperneck -11.2973 -2.04325 6.38
head -4.01307 -0.975512 2.70195
rclavicle -2.43511e-015 2.38542e-015
rhumerus -35.8661 -18.3122 -79.1955
rradius 29.2428
rwrist 1.20042
rhand -5.78769 -52.5981
rfingers 7.12502
rthumb 20.0364 278.415
lclavicle -2.43511e-015 2.38542e-015
lhumerus -26.4704 0.536556 85.1613
lradius 24.3237
lwrist -3.71274
lhand -22.1953 -11.4701
lfingers 7.12502
lthumb 4.2202 18.4678
rfemur -22.8052 8.46532 17.807
rtibia 16.5659
rfoot -25.7023 -9.62065
rtoes -22.4169
lfemur -23.0612 -10.2223 -21.3619
ltibia 16.5045
lfoot -13.7885 0.732057
ltoes -30.0682
